<svg width="56" height="56" viewBox="0 0 56 56" fill="none" xmlns="http://www.w3.org/2000/svg">
<path d="M28 56C43.464 56 56 43.464 56 28C56 12.536 43.464 0 28 0C12.536 0 0 12.536 0 28C0 43.464 12.536 56 28 56Z" fill="#F49B33"/>
<path d="M38.3141 22.2819C38.0403 18.7705 35.0282 17.5409 31.2161 17.1383L31.302 12.2738L28.3436 12.2255L28.2577 16.9611C27.4792 16.945 26.6846 16.9503 25.8899 16.9503L25.9758 12.1826L23.0174 12.1289L22.9315 16.9933C22.2926 16.9933 21.6591 16.9987 21.047 16.9826V16.9664L16.9611 16.8966L16.9074 20.0591C16.9074 20.0591 19.098 20.0537 19.0604 20.0966C20.2577 20.1181 20.6389 20.8215 20.7409 21.4228L20.6443 26.9638C20.7248 26.9638 20.8322 26.9691 20.9557 26.9906L20.6443 26.9852L20.5101 34.749C20.451 35.1248 20.2201 35.7208 19.3772 35.7101C19.4148 35.7423 17.2242 35.6725 17.2242 35.6725L16.5745 39.1946L20.4295 39.2644C21.1436 39.2805 21.8523 39.302 22.545 39.3181L22.4591 44.2362L25.4174 44.2846L25.5034 39.4201C26.3141 39.447 27.1034 39.4685 27.8711 39.4846L27.7852 44.3275L30.7436 44.3758L30.8295 39.4685C35.8121 39.2698 39.3181 38.0779 39.8336 33.4067C40.247 29.6483 38.5074 27.9356 35.694 27.2107C37.4228 26.3732 38.5235 24.8537 38.3141 22.2819ZM33.9866 32.7302C33.9275 36.4081 27.6349 35.8765 25.6268 35.8443L25.745 29.3262C27.753 29.3584 34.0564 28.8913 33.9866 32.7302ZM32.7732 23.506C32.7141 26.851 27.4685 26.3678 25.7987 26.3409L25.9007 20.4295C27.5705 20.4564 32.8322 20.0161 32.7732 23.506Z" fill="white"/>
</svg>
